HIERARCHY
ROOT Hips
{
	OFFSET -32.860001 56.121803 44.745396
	CHANNELS 6 Xposition Yposition Zposition Zrotation Xrotation Yrotation
	JOINT Chest
	{
		OFFSET -0.637402 0.831600 5.390099
		CHANNELS 6 Xposition Yposition Zposition Zrotation Xrotation Yrotation
		JOINT Chest2
		{
			OFFSET 0.000000 0.000000 4.429901
			CHANNELS 6 Xposition Yposition Zposition Zrotation Xrotation Yrotation
			JOINT Neck
			{
				OFFSET 0.000000 0.000000 10.301395
				CHANNELS 6 Xposition Yposition Zposition Zrotation Xrotation Yrotation
				JOINT Head
				{
					OFFSET 0.000000 0.000000 2.173897
					CHANNELS 6 Xposition Yposition Zposition Zrotation Xrotation Yrotation
					End Site
					{
						OFFSET 0.000000 0.000000 8.298004
					}
				}
			}
			JOINT LeftCollar
			{
				OFFSET 2.142401 -0.572701 5.717800
				CHANNELS 6 Xposition Yposition Zposition Zrotation Xrotation Yrotation
				JOINT LeftShoulder
				{
					OFFSET 5.674000 0.000000 0.000000
					CHANNELS 6 Xposition Yposition Zposition Zrotation Xrotation Yrotation
					JOINT LeftElbow
					{
						OFFSET 0.000000 0.000000 -12.238701
						CHANNELS 6 Xposition Yposition Zposition Zrotation Xrotation Yrotation
						JOINT LeftWrist
						{
							OFFSET 0.000000 0.000000 -10.253700
							CHANNELS 6 Xposition Yposition Zposition Zrotation Xrotation Yrotation
							End Site
							{
								OFFSET 0.000000 0.000000 -2.173901
							}
						}
					}
				}
			}
			JOINT RightCollar
			{
				OFFSET -2.882599 -1.580101 6.695801
				CHANNELS 6 Xposition Yposition Zposition Zrotation Xrotation Yrotation
				JOINT RightShoulder
				{
					OFFSET -4.235600 0.000000 0.000000
					CHANNELS 6 Xposition Yposition Zposition Zrotation Xrotation Yrotation
					JOINT RightElbow
					{
						OFFSET 0.000000 0.000000 -10.709900
						CHANNELS 6 Xposition Yposition Zposition Zrotation Xrotation Yrotation
						JOINT RightWrist
						{
							OFFSET 0.000000 0.000000 -11.716801
							CHANNELS 6 Xposition Yposition Zposition Zrotation Xrotation Yrotation
							End Site
							{
								OFFSET 0.000000 0.000000 -2.173901
							}
						}
					}
				}
			}
		}
	}
	JOINT LeftHip
	{
		OFFSET 2.279499 0.210400 -2.475502
		CHANNELS 6 Xposition Yposition Zposition Zrotation Xrotation Yrotation
		JOINT LeftKnee
		{
			OFFSET 0.000000 -0.000004 -20.742800
			CHANNELS 6 Xposition Yposition Zposition Zrotation Xrotation Yrotation
			JOINT LeftAnkle
			{
				OFFSET 0.000000 0.000000 -16.666000
				CHANNELS 6 Xposition Yposition Zposition Zrotation Xrotation Yrotation
				End Site
				{
					OFFSET 0.000000 -8.310898 0.000000
				}
			}
		}
	}
	JOINT RightHip
	{
		OFFSET -1.961899 0.232300 -2.727402
		CHANNELS 6 Xposition Yposition Zposition Zrotation Xrotation Yrotation
		JOINT RightKnee
		{
			OFFSET 0.000000 -0.000004 -20.526800
			CHANNELS 6 Xposition Yposition Zposition Zrotation Xrotation Yrotation
			JOINT RightAnkle
			{
				OFFSET 0.000000 0.000000 -16.867300
				CHANNELS 6 Xposition Yposition Zposition Zrotation Xrotation Yrotation
				End Site
				{
					OFFSET 0.000000 -7.186401 0.000000
				}
			}
		}
	}
}
MOTION
Frames: 6
Frame Time: 0.041667
-2.588192 45.985207 39.501595 719.971825 -0.560204 -5.775699 -0.637408 0.831605 5.390099 -0.516390 10.729325 -0.298362 0.000001 -0.000002 4.429902 0.136699 -1.344949 -0.143251 0.000003 -0.000003 10.301405 357.882624 19.199223 1.660947 -0.000001 -0.000005 2.173902 -359.815103 2.651927 -1.380687 2.142401 -0.572704 5.717805 -17.667992 3.625579 0.911202 5.674006 0.000007 0.000005 19.487990 137.748373 176.808285 -0.000000 0.000001 -12.238695 165.136366 -541.523407 -178.703225 0.000003 0.000011 -10.253702 113.797037 -32.545445 -67.613750 -2.882599 -1.580106 6.695799 17.442647 9.500759 -10.653927 -4.235607 0.000005 -0.000019 40.283178 -24.338397 36.149425 0.000004 0.000010 -10.709912 -5.896358 6.058094 5.033247 -0.000003 0.000007 -11.716803 6.905043 21.129359 3.974353 2.279495 0.210411 -2.475497 427.169183 -39.692053 21.370574 0.000001 -0.000013 -20.742807 -153.519648 -3.304369 70.006270 -0.000003 0.000001 -16.666002 85.508812 9.973686 45.170930 -1.961898 0.232305 -2.727402 -482.265123 -36.349888 -40.749916 0.000010 -0.000008 -20.526810 588.968196 139.721451 -150.280336 -0.000002 -0.000001 -16.867294 -320.722789 50.542273 -3.419373
-1.640997 45.950905 39.998295 719.852925 0.220305 -5.432123 -0.637404 0.831604 5.390100 -0.344992 10.535602 0.015101 -0.000002 0.000005 4.429895 0.687574 -1.262951 -0.079828 -0.000007 -0.000003 10.301399 361.174939 19.895134 1.286509 -0.000000 -0.000003 2.173908 -359.715136 2.846285 -1.278194 2.142395 -0.572704 5.717801 -17.841777 4.052885 1.069290 5.674000 0.000002 -0.000003 36.802364 138.185382 162.593254 -0.000001 0.000000 -12.238683 151.392167 -541.104470 -178.294753 0.000000 0.000002 -10.253706 113.712664 -32.336585 -67.002093 -2.882604 -1.580104 6.695791 19.113823 10.529155 -11.113312 -4.235603 0.000006 -0.000006 39.836122 -26.618646 36.378301 -0.000002 0.000004 -10.709906 -3.192946 6.391772 4.785015 -0.000001 0.000001 -11.716799 6.439420 21.177645 4.808511 2.279499 0.210403 -2.475500 424.042159 -39.637808 19.823109 -0.000005 -0.000011 -20.742809 -147.018319 3.196134 69.725795 -0.000006 0.000003 -16.665998 80.540792 10.366999 41.746492 -1.961897 0.232300 -2.727402 -473.234301 -38.070788 -36.710289 -0.000001 -0.000005 -20.526806 591.656012 130.497731 -154.148395 0.000005 0.000004 -16.867298 -336.101151 43.514254 2.109473
-0.778591 45.900208 40.507797 720.421798 0.680875 -5.010961 -0.637405 0.831603 5.390103 -0.890715 10.486117 0.400004 -0.000003 0.000000 4.429904 1.257353 -1.148357 -0.044700 -0.000003 -0.000005 10.301388 363.215199 20.626777 1.023353 -0.000003 -0.000004 2.173899 -359.605635 2.746151 -1.224929 2.142396 -0.572701 5.717797 -18.474895 4.569600 1.297361 5.674006 -0.000001 0.000003 39.583357 137.424417 158.646812 -0.000002 0.000004 -12.238707 149.136170 -540.853229 -178.034263 0.000000 0.000002 -10.253694 113.620859 -31.579926 -67.225932 -2.882598 -1.580102 6.695792 20.498569 11.579147 -10.895242 -4.235601 0.000007 -0.000013 38.624733 -29.678596 35.604157 -0.000002 0.000002 -10.709904 -0.485623 6.416929 4.332449 0.000000 0.000007 -11.716802 6.833561 21.360679 5.974666 2.279494 0.210403 -2.475493 420.062754 -39.451968 17.715573 -0.000003 -0.000016 -20.742805 -139.754837 10.417335 68.537397 -0.000006 -0.000000 -16.666000 74.714838 11.043154 37.683547 -1.961897 0.232304 -2.727401 -464.641213 -39.079662 -32.303089 0.000006 -0.000005 -20.526794 596.123611 122.084154 -161.321896 -0.000004 0.000008 -16.867298 -348.539308 36.214151 4.800795
0.005806 45.829102 41.022991 721.120717 0.955449 -4.551513 -0.637404 0.831594 5.390102 -1.717301 10.505859 0.856360 -0.000000 0.000005 4.429903 1.961796 -0.995808 0.016801 -0.000003 -0.000002 10.301388 364.285216 21.418281 0.775580 -0.000001 -0.000011 2.173904 -359.496325 2.868656 -1.126262 2.142401 -0.572697 5.717802 -18.651834 4.877265 1.243126 5.673999 0.000010 -0.000006 41.184084 137.155403 155.424520 -0.000001 0.000003 -12.238708 147.471325 -540.634826 -177.820724 0.000002 0.000000 -10.253712 113.236818 -31.251220 -67.097524 -2.882603 -1.580089 6.695795 21.608478 12.444657 -10.552380 -4.235601 0.000005 -0.000011 36.160558 -33.238166 33.874934 0.000004 0.000000 -10.709897 -1.592644 5.443747 3.970157 0.000001 0.000006 -11.716814 10.921304 21.018254 6.973161 2.279498 0.210400 -2.475502 416.215090 -39.038438 15.379576 -0.000004 -0.000007 -20.742798 -131.952466 17.566007 66.325727 -0.000004 -0.000000 -16.666002 68.386005 11.910937 33.329380 -1.961896 0.232296 -2.727396 -456.083013 -39.313947 -27.804100 0.000001 -0.000009 -20.526798 602.300725 115.628068 -171.797481 0.000002 0.000005 -16.867296 -357.978465 29.693237 5.348242
0.717606 45.741997 41.541092 722.111204 1.103155 -4.056744 -0.637403 0.831604 5.390098 -2.681517 10.549897 1.322282 -0.000002 0.000003 4.429894 2.500887 -0.848168 0.058161 0.000000 0.000005 10.301395 364.709043 22.174117 0.503631 -0.000000 0.000002 2.173900 -359.390484 2.956736 -1.075098 2.142397 -0.572700 5.717797 -18.972775 5.183940 1.149526 5.673998 0.000007 -0.000007 42.277423 137.036694 152.906694 0.000004 -0.000003 -12.238690 146.138154 -540.461941 -177.660447 0.000002 -0.000005 -10.253699 112.827588 -31.010370 -67.098733 -2.882601 -1.580091 6.695802 22.474171 13.184890 -10.206911 -4.235599 -0.000003 -0.000011 35.033000 -35.572633 32.506212 0.000005 0.000002 -10.709903 -4.974636 4.293649 3.817292 -0.000002 0.000005 -11.716807 18.196942 20.583412 7.851388 2.279493 0.210405 -2.475496 412.601728 -38.392370 13.084639 -0.000004 -0.000008 -20.742809 -123.514600 24.463711 62.929265 -0.000002 0.000007 -16.666004 61.808868 13.055081 28.845528 -1.961898 0.232300 -2.727396 -447.912550 -38.805324 -23.385712 -0.000005 -0.000006 -20.526800 605.731993 111.783846 -181.322931 -0.000004 -0.000001 -16.867296 -363.487231 24.820119 4.708123
1.370304 45.640308 42.057793 723.256490 1.183437 -3.498782 -0.637403 0.831609 5.390096 -3.784338 10.576600 1.709549 -0.000002 0.000005 4.429900 3.035040 -0.700340 0.095309 -0.000002 0.000000 10.301394 364.802999 22.867986 0.201585 -0.000002 0.000008 2.173901 -359.387233 2.986228 -1.020028 2.142398 -0.572701 5.717801 -19.348637 5.484209 0.943716 5.674002 0.000010 -0.000007 43.120261 137.180811 150.780019 0.000003 0.000005 -12.238693 144.955602 -540.342713 -177.549661 0.000001 0.000002 -10.253702 112.395872 -30.823114 -67.189609 -2.882601 -1.580098 6.695790 23.181078 13.806361 -9.859761 -4.235605 0.000002 -0.000004 35.071457 -36.847703 31.667137 0.000000 0.000005 -10.709893 -9.365758 3.105863 3.658127 0.000007 0.000006 -11.716796 25.162613 20.676531 8.984115 2.279504 0.210409 -2.475501 409.305698 -37.561922 10.897767 -0.000005 -0.000006 -20.742802 -114.047227 30.992301 58.226932 0.000000 -0.000003 -16.666004 54.827482 14.396700 24.407182 -1.961902 0.232304 -2.727405 -439.401260 -37.714034 -18.876751 0.000000 -0.000002 -20.526802 606.419821 109.640915 -189.513243 -0.000001 0.000011 -16.867304 -366.831374 21.217271 3.380452
